<svg xmlns="http://www.w3.org/2000/svg" xmlns:xlink="http://www.w3.org/1999/xlink" viewBox="0 0 205.82 232.64"><defs><style>.cls-1{fill:url(#radial-gradient);}.cls-2{fill:url(#radial-gradient-2);}.cls-3{fill:#a8be38;}.cls-11,.cls-4{fill:#bece47;}.cls-5{fill:#4a5727;}.cls-6{fill:#fff;}.cls-7{fill:url(#radial-gradient-3);}.cls-8{fill:url(#radial-gradient-4);}.cls-9{fill:url(#radial-gradient-5);}.cls-10{fill:#f7941d;}.cls-11{font-size:36px;font-family:ArialRoundedMTBold, Arial Rounded MT Bold;}.cls-12,.cls-13{fill:#fbcc0a;}.cls-13{letter-spacing:-0.01em;}</style><radialGradient id="radial-gradient" cx="102.91" cy="89.51" r="123.47" gradientUnits="userSpaceOnUse"><stop offset="0.16" stop-color="#fab417"/><stop offset="0.72" stop-color="#cd8225"/></radialGradient><radialGradient id="radial-gradient-2" cx="105.37" cy="82.45" r="114.4" gradientUnits="userSpaceOnUse"><stop offset="0.36" stop-color="#fff"/><stop offset="1" stop-color="#a6a6a6"/></radialGradient><radialGradient id="radial-gradient-3" cx="79.14" cy="157.46" r="8.41" gradientUnits="userSpaceOnUse"><stop offset="0" stop-color="#c37929"/><stop offset="0.26" stop-color="#c37a29"/><stop offset="0.72" stop-color="#be7329"/></radialGradient><radialGradient id="radial-gradient-4" cx="125.84" cy="163.58" r="7.4" xlink:href="#radial-gradient-3"/><radialGradient id="radial-gradient-5" cx="137.98" cy="152.01" r="4.43" xlink:href="#radial-gradient-3"/></defs><g id="Layer_2" data-name="Layer 2"><g id="Layer_1-2" data-name="Layer 1"><path class="cls-1" d="M157.69,150.47c11.54-8.82,22.19-31.55,35-19.18,0,0-2-14.88-19.55-7.61-12.87,5.34-19.82,26.6-39.13,19.07-3.35-1.3-3.08-5.21-3-6.31,28.15-10.08,48.17-35.8,48.17-65.94,0-38.94-33.39-70.5-74.57-70.5S30,31.56,30,70.5c0,33.16,24.22,61,56.84,68.49h0s3.43,13.28-15.35,9.28C56.19,145,47.49,125.92,28,121.68,15.3,118.92,5.52,130,8,139.5c0,0,3.91-13.14,20-9.29,11.27,2.7,18.38,12.3,27.58,20.44,8.42,7.46,21.95,12.92,27.87,9.61,0,0-1.66,7.58-13,5.07C56.18,162.15,37,152.53,28,168.59c0,0,9.22-9.78,27.2.5,16.59,9.49,53.44,18.07,63.72-3.76,0,0,14.35,14.3,39.56.1,21.83-12.29,30.69-15.91,39.72-2.36,0,0-1.29-14.53-14.6-14.79s-22.53,13-37.08,11.53c-9.73-1-12-6-12-6A23.41,23.41,0,0,0,157.69,150.47Z"/><ellipse class="cls-2" cx="105.03" cy="69.74" rx="64.22" ry="61.55"/><path class="cls-3" d="M146.51,74.59c0,24.48-18,44.33-40.14,44.33S66.23,99.07,66.23,74.59s18-44.32,40.14-44.32S146.51,50.12,146.51,74.59Z"/><path class="cls-4" d="M126.87,76c0,13-9.57,23.6-21.37,23.6S84.13,89,84.13,76s9.56-23.6,21.37-23.6S126.87,63,126.87,76Z"/><path class="cls-5" d="M126.25,76c0,12.49-9.17,22.61-20.48,22.61S85.3,88.45,85.3,76s9.16-22.61,20.47-22.61S126.25,63.48,126.25,76Z"/><path class="cls-6" d="M129.45,88.31c0,5.45-3,9.87-6.69,9.87s-6.69-4.42-6.69-9.87,3-9.87,6.69-9.87S129.45,82.86,129.45,88.31Z"/><path class="cls-7" d="M86.86,153s-2.13,5.05-2.73,6.64a10.88,10.88,0,0,1-1.39,2.21,26.2,26.2,0,0,1-4-.32,46.66,46.66,0,0,1-7.36-1.74S80.84,159.52,86.86,153Z"/><path class="cls-8" d="M121.67,155.73s-1.37,7.08-2.76,9.6c0,0,4.64,5,13.86,6.09A17.61,17.61,0,0,1,121.67,155.73Z"/><path class="cls-9" d="M132.77,148.52s.66,4.1,1.87,5.57c0,0,2.59,1.64,8.55,1.39C143.19,155.48,134.65,152.72,132.77,148.52Z"/><path class="cls-10" d="M28.43,124.48c0,1.08-1.33,2-3,2s-3-.88-3-2,1.33-2,3-2S28.43,123.39,28.43,124.48Z"/><path class="cls-10" d="M15.46,128.62c.14.53-.39,1.12-1.19,1.32s-1.54-.05-1.68-.57.4-1.12,1.19-1.33S15.33,128.1,15.46,128.62Z"/><path class="cls-10" d="M35.13,128.76A1.65,1.65,0,0,1,32,128a1.65,1.65,0,0,1,3.16.8Z"/><path class="cls-10" d="M43.07,131a1.11,1.11,0,1,1-.83-1.16A1,1,0,0,1,43.07,131Z"/><path class="cls-10" d="M48.52,137.78a1.83,1.83,0,1,1-1.38-1.91A1.68,1.68,0,0,1,48.52,137.78Z"/><path class="cls-10" d="M184.48,152.06c0,.46-.73.79-1.58.74s-1.5-.46-1.48-.92.74-.79,1.58-.75S184.5,151.6,184.48,152.06Z"/><path class="cls-10" d="M189,151.34c-.2.41-1,.46-1.74.1s-1.23-1-1-1.41,1-.46,1.74-.1S189.21,150.92,189,151.34Z"/><path class="cls-10" d="M192,154.31c-.14.31-.71.35-1.27.08s-.9-.73-.76-1,.72-.35,1.28-.08S192.12,154,192,154.31Z"/><path class="cls-10" d="M172,126.83c.38.56-.14,1.59-1.16,2.3s-2.18.83-2.57.27.13-1.59,1.16-2.3S171.57,126.27,172,126.83Z"/><path class="cls-10" d="M167.36,134.11c.39.56-.13,1.59-1.16,2.3s-2.18.83-2.57.27.13-1.6,1.16-2.31S167,133.54,167.36,134.11Z"/><path class="cls-10" d="M176.75,124.67a1,1,0,0,1-.34,1.41,1,1,0,0,1-1.44-.18,1,1,0,0,1,.35-1.41A1,1,0,0,1,176.75,124.67Z"/><path class="cls-10" d="M183.84,123.24a1.09,1.09,0,1,1-1.44-.18A1,1,0,0,1,183.84,123.24Z"/><path class="cls-10" d="M187.79,124.67a1.09,1.09,0,1,1-1.44-.18A1,1,0,0,1,187.79,124.67Z"/><path class="cls-10" d="M178,152.36c.23.64-.55,1.5-1.73,1.91s-2.32.22-2.54-.43.55-1.5,1.73-1.91S177.78,151.71,178,152.36Z"/><text class="cls-11" transform="translate(0 225.05)">Octo<tspan class="cls-12" x="84.39" y="0">M</tspan><tspan class="cls-13" x="114.38" y="0">o</tspan><tspan class="cls-12" x="135.65" y="0">vies</tspan></text></g></g></svg>